<?xml version="1.0" standalone="no"?><!DOCTYPE svg PUBLIC "-//W3C//DTD SVG 1.1//EN"
        "http://www.w3.org/Graphics/SVG/1.1/DTD/svg11.dtd">
<svg t="1731162349561" class="icon" viewBox="0 0 1024 1024" version="1.1" xmlns="http://www.w3.org/2000/svg"
     p-id="50484" xmlns:xlink="http://www.w3.org/1999/xlink" width="200" height="200">
    <path d="M873.3 703.7l-28.6-442.5c-3.7-85.2-6.5-147.1-96-150.2-95.7-3.2-85.3 92.2-96 137.2-19.3 81.1-69 92.7-140.7 92.7-71.6 0-121.4-11.6-140.7-92.7-10.7-45-0.3-140.5-96-137.2-89.6 3-92.3 64.9-96 150.2l-28.6 442.5c-10.5 113 37.4 209.4 159.7 209.4h403.2c122.2 0 170.2-96.4 159.7-209.4z"
          fill="#ffffff" p-id="50485"></path>
    <path d="M713.6 913.1c122.3 0 170.2-96.4 159.7-209.4l-28.6-442.5c-3.7-85.2-6.5-147.1-96-150.2-95.7-3.2-85.3 92.2-96 137.2-19.3 81.1-69 92.7-140.7 92.7V913h201.6z"
          fill="#EB5E1A" p-id="50486"></path>
    <path d="M894.2 702l-28.5-442c-1.9-44.7-3.6-83.4-17.7-113.6-17-36.3-49.2-54.7-98.6-56.4-43.1-1.5-74.2 14.4-92.4 46.9-13.8 24.6-17.5 54.8-20.5 79-1.3 10.4-2.5 20.2-4.2 27.5-10.1 42.4-27.9 56.4-40.4 63.2-17.3 9.5-40.5 13.4-79.9 13.4-39.4 0-62.6-3.9-79.9-13.4-12.5-6.8-30.3-20.9-40.4-63.2-1.7-7.3-3-17.1-4.2-27.5-3-24.2-6.7-54.3-20.5-79-17.4-31.2-46.7-47-87-47-1.8 0-3.6 0-5.4 0.1-49.4 1.7-81.6 20.1-98.5 56.4-14.1 30.3-15.8 68.9-17.7 113.6l-28.6 442c-6.8 73.9 10.2 137.3 48 178.7 31.8 34.9 77.6 53.3 132.6 53.3h403.2c55 0 100.9-18.4 132.6-53.3 37.8-41.3 54.8-104.8 48-178.7z m-79 150.5c-23.9 26.3-58.1 39.6-101.6 39.6H310.4c-43.5 0-77.7-13.3-101.6-39.6-29.7-32.6-42.9-84.8-37.2-146.9v-0.6l28.6-442.5v-0.4c1.8-40.4 3.3-75.2 13.9-98 7-15.1 19.9-30.7 61.9-32.1 1.3 0 2.7-0.1 4-0.1 16.8 0 37.7 2.9 50.3 25.5 9.8 17.5 12.8 42 15.5 63.6 1.4 11.5 2.8 22.5 5.1 32.1 10.5 44 30.5 73.6 61.1 90.3 29.7 16.3 65.6 18.6 100 18.6 34.4 0 70.3-2.2 100-18.5 30.6-16.8 50.6-46.3 61.1-90.3 2.3-9.6 3.6-20.5 5.1-32.1 2.7-21.6 5.7-46.1 15.5-63.6 12.6-22.6 33.6-25.5 50.4-25.5 1.3 0 2.6 0 4 0.1 42 1.4 54.8 17 61.9 32.1 10.6 22.8 12.1 57.6 13.9 98v0.4L852.3 705v0.6c5.8 62.1-7.4 114.2-37.1 146.9z"
          fill="#EB5E1A" p-id="50487"></path>
    <path d="M712.6 759.5H311.3c-11.6 0-21 9.4-21 21s9.4 21 21 21h401.3c11.6 0 21-9.4 21-21s-9.4-21-21-21zM291.7 198.2c0-11.6-9.4-21-21-21s-21 9.4-21 21v63c0 11.6 9.4 21 21 21s21-9.4 21-21v-63zM750.4 177.2c-11.6 0-21 9.4-21 21v63c0 11.6 9.4 21 21 21s21-9.4 21-21v-63c0-11.6-9.4-21-21-21z"
          fill="#EB5E1A" p-id="50488"></path>
</svg>