<?xml version="1.0" standalone="no"?><!DOCTYPE svg PUBLIC "-//W3C//DTD SVG 1.1//EN"
        "http://www.w3.org/Graphics/SVG/1.1/DTD/svg11.dtd">
<svg t="1731163569808" class="icon" viewBox="0 0 1024 1024" version="1.1" xmlns="http://www.w3.org/2000/svg"
     p-id="52816" xmlns:xlink="http://www.w3.org/1999/xlink" width="200" height="200">
    <path d="M955.35 281.27c-0.33-18.16-15.32-32.61-33.49-32.28l-371.62 6.8c8.6-18.88 21.15-42.23 39.19-70 0.69-1.07 1.15-2.21 1.71-3.32l327.06-52.14c17.34-2.76 29.16-19.07 26.4-36.41-2.77-17.34-19.07-29.16-36.41-26.39L249.72 172.51c-17.34 2.76-29.16 19.06-26.4 36.41 2.76 17.34 19.07 29.16 36.41 26.4l6.26-1c-3.88 9.62-7.17 18.99-9.29 27.89-2.53-0.57-5.14-0.95-7.85-0.9l-22.42 0.41c-18.16 0.33-32.61 15.32-32.28 33.49 0.33 18.16 15.32 32.61 33.49 32.28l22.42-0.41c2.83-0.05 5.52-0.57 8.13-1.29 0.77 2.35 1.29 4.78 2.23 7.08 6.96 17.08 16.99 28.84 25.04 38.28 8.89 10.42 13.24 15.84 15.07 25.03 3.08 15.52-2.39 25.28-14.86 42.67H68.84l1.2 34.04c4.05 115.16 42.41 221.47 107.99 299.35 54.42 64.61 125.51 107.44 208.59 127.8-6.58 6.01-10.78 14.59-10.78 24.2 0 18.16 14.72 32.89 32.89 32.89H593.9c18.16 0 32.89-14.72 32.89-32.89 0-9.62-4.2-18.19-10.78-24.2 83.08-20.35 154.16-63.19 208.58-127.79h0.01c65.6-77.89 103.94-184.2 107.98-299.36l1.2-34.04H576.64c4.68-14.67 6.62-31.45 2.63-51.52-5.32-26.74-19.04-42.83-30.06-55.75-3.02-3.54-5.65-6.7-8.02-9.83l381.87-6.99c18.17-0.33 32.62-15.33 32.29-33.49z m-592.46 102.5c-5.14-25.86-18.4-41.4-29.05-53.9-6.39-7.49-11.44-13.41-14.53-21-7.63-18.73 0.56-48 24-86.89l55.35-8.82c-26.04 50.3-33.08 89.82-20.91 119.72 6.97 17.07 17 28.83 25.05 38.27 8.89 10.42 13.24 15.84 15.07 25.03 3.08 15.51-2.39 25.26-14.87 42.67h-44.34c5.81-15.36 8.56-33.27 4.23-55.08z m411.39 346.1h0.01c-65.19 77.38-159.58 118.28-272.98 118.28s-207.78-40.91-272.96-118.29c-49.75-59.06-81.24-138.09-90.23-225.24H864.5c-8.98 87.15-40.46 166.17-90.22 225.25zM476 438.84c5.82-15.35 8.57-33.26 4.24-55.07-5.14-25.86-18.4-41.41-29.07-53.9-6.39-7.49-11.44-13.41-14.53-20.99-1.07-2.64-9.04-27.94 40.59-104.39 0.88-1.35 1.51-2.78 2.16-4.21l27.28-4.35c-27.27 49.75-47.6 103.87-33.41 138.74 7.21 17.65 17.58 29.82 25.91 39.58 9.2 10.78 13.69 16.38 15.59 25.89 2.85 14.36-1.44 23.98-11.56 38.69H476z"
          fill="#FC7701" p-id="52817"></path>
</svg>